<svg xmlns="http://www.w3.org/2000/svg" viewBox="0 0 503.65 133.92" width="100%" height="auto"><g data-name="Layer 2"><g data-name="Layer 1"><g data-name="Gifiverse Wordmark"><path data-name="Gifiverse BG" d="M359.3 113.34a11.76 11.76 0 0 1-9.54-5.82q-3.5-5.94-7-11.87a13.61 13.61 0 0 1-12.26 6q-4.07-.18-8.13-.33a14.71 14.71 0 0 1-6.37-1.66 14.24 14.24 0 0 1-6.71 1.38q-14.7-.47-29.41-.67c-7.9-.11-13.53-5.66-13.69-13.56q-.12-10-.26-20-5 12.78-9.81 25.6a12 12 0 0 1-11.23 7.77q-6.31 0-12.61.11a11.93 11.93 0 0 1-11.47-7.87q-4.72-13.17-9.59-26.31l.56 22.71a11.72 11.72 0 0 1-11.66 12.19q-9.9.3-19.81.73a11.69 11.69 0 0 1-12.53-11.25v-.32l-.15-12.43-3.68.64c.19 3.62.37 7.25.56 10.87.38 7.65-4.93 13.48-12.63 13.93-3.69.22-7.39.45-11.08.69a14.19 14.19 0 0 1-6.9-1.22 12.48 12.48 0 0 1-6.19 2.12q-9.9.72-19.78 1.55a11.81 11.81 0 0 1-11.05-5.11 25.57 25.57 0 0 1-16 7.61q-8.73.87-17.47 1.83a28.58 28.58 0 0 1-20-5.1l-.67-.48a25.43 25.43 0 0 1-11-17.83Q29.35 68.31 27 49.37a27.09 27.09 0 0 1 5-19.67l1-1.52A26.5 26.5 0 0 1 52.22 17.1q15.9-1.77 31.84-3.24a14.38 14.38 0 0 1 10.51 2.93 14.88 14.88 0 0 1 10.08-4.73q7.13-.57 14.27-1.1a15.2 15.2 0 0 1 9.36 2.18 16.4 16.4 0 0 1 5.65-1.37q16.11-1 32.23-1.83a15.56 15.56 0 0 1 5.67.73 15.26 15.26 0 0 1 9.11-3.25q7.14-.28 14.29-.51a16 16 0 0 1 6.36 1A16.3 16.3 0 0 1 208 6.54q6-.15 12-.27c6.57-.12 12 3.27 14.43 9.05q1.74 4.11 3.47 8.22c.29-.84.57-1.67.86-2.5a14 14 0 0 1 13.6-9.43q8.07 0 16.12.05h.94A14.88 14.88 0 0 1 279.87 8q16.14.21 32.26.71a16 16 0 0 1 5.7 1.22 15.56 15.56 0 0 1 8.09-1.78q14.88.57 29.76 1.38a29.06 29.06 0 0 1 19.19 8.14c.56.55 1.09 1.13 1.59 1.72l.35-.29c5.19-4.1 11.87-5.9 19.78-5.29q14.91 1.16 29.82 2.54a15.54 15.54 0 0 1 6.19 1.88 15.78 15.78 0 0 1 7.76-1.07q16.06 1.62 32.12 3.52c8.09 1 13.26 7.23 12.29 14.82q-1 7.91-2 15.79a12.75 12.75 0 0 1-6.23 9.46 11.72 11.72 0 0 1 .56 5.41q-.47 3.83-1 7.65a11.75 11.75 0 0 1-2.77 6.28 12.72 12.72 0 0 1 4.29 11.59l-1.17 9.26c-1 7.6-7.23 12.41-14.9 11.5q-14.64-1.74-29.29-3.23a13.49 13.49 0 0 1-11.02-7.21c-.13.09-.27.17-.41.25-5.35 3.26-11.62 4.59-18.7 4q-8.72-.74-17.44-1.38a11.67 11.67 0 0 1-12.51 9.34q-6.43-.48-12.88-.87Z" fill="#320f57"/><path d="M76.05 82.8h.37c1.14-.11 1.65-.79 1.53-2-.15-1.44-.29-2.89-.43-4.33l-3.13-.32a1.86 1.86 0 0 1-1.87-1.77q-.69-6.85-1.4-13.71a1.6 1.6 0 0 1 1.64-2l20.85-2q3.33-.3 3.61 2.91.68 7.61 1.34 15.22a17.82 17.82 0 0 1-3.67 12.66Q93 90 91.09 92.55a15.43 15.43 0 0 1-11.28 6.37q-8.79.87-17.57 1.84a18.13 18.13 0 0 1-12.94-3.28l-.66-.48a15.33 15.33 0 0 1-6.72-11q-2.3-19-4.57-37.9a17.77 17.77 0 0 1 3.31-12.86l1.08-1.49A15.8 15.8 0 0 1 53.31 27Q69.13 25.29 85 23.82q3.39-.32 3.68 2.89.72 7.78 1.42 15.58c.19 2.13-.82 3.3-3.06 3.51q-9.92.91-19.84 2c-5.06.53-7.32 3.23-6.8 8.06q1.27 11.73 2.54 23.44.38 3.47 4 3.5c3.06-.04 6.06-.03 9.11 0Zm52.65 10.06a1.65 1.65 0 0 1-1.75 2q-9.95.72-19.89 1.56a1.63 1.63 0 0 1-2-1.65v-.13q-1.62-34.35-3.16-68.71c-.11-2.38 1.1-3.68 3.61-3.89q7.1-.59 14.19-1.1 3.87-.29 4.14 3.38 2.4 34.26 4.86 68.54Zm25.64-3q.18 3.21-3.08 3.4c-3.71.22-7.43.45-11.14.69-2.18.14-3.35-.85-3.52-3q-2.79-32.64-5.6-65.28v-.13q-.24-3.54 3.63-3.79 16-1 32-1.83 3.41-.15 3.55 3.06.36 8 .73 15.9.15 3.21-3.2 3.37-6.74.31-13.45.7c-1.29.07-1.9.72-1.83 2l.39 6.88a1.67 1.67 0 0 0 1.93 1.75c3.75 0 7.5 0 11.25.05a1.68 1.68 0 0 1 1.92 1.76l.5 10.46a1.64 1.64 0 0 1-1.49 1.94q-6 1.05-12.06 2.13a1.71 1.71 0 0 0-1.57 2q.52 8.93 1.04 17.93Zm47.28-.71a1.67 1.67 0 0 1-1.83 1.92q-10 .31-19.93.74c-1.26 0-1.91-.52-2-1.73v-.14q-.21-34.38-.32-68.77 0-3.59 3.77-3.74 7.11-.29 14.21-.52 3.88-.12 4 3.55 1.06 34.34 2.1 68.68Zm6.66-72.61q6-.15 11.92-.26a4.38 4.38 0 0 1 4.46 2.82q7.25 16.9 14.26 33.77 4.85-14.37 9.85-28.71a3.5 3.5 0 0 1 3.61-2.55q8 0 16 .05c2 0 3.05.76 3 2.24a5.59 5.59 0 0 1-.5 2Q258.36 57.38 246.59 89a1.75 1.75 0 0 1-1.78 1.24q-6.34 0-12.68.12a1.77 1.77 0 0 1-1.81-1.3q-12.09-34.18-25.08-68.22a5.5 5.5 0 0 1-.38-1.71c-.05-1.67 1.14-2.54 3.42-2.6Zm101.79 58.73q3.3.11 3.19 3.33-.17 4.66-.31 9.33-.1 3.21-3.37 3.11-14.79-.45-29.58-.67c-2.42 0-3.64-1.27-3.68-3.72q-.22-32.52-.5-65.06v-.14c0-2.35 1.33-3.52 3.92-3.48q16 .21 32.08.71c2.27.07 3.36 1.18 3.29 3.32q-.25 8-.52 15.91-.1 3.21-4.87 3.06l-12.57-.33q-3.36-.07-3.42 3.14c0 1.18-.05 2.36-.08 3.54q-.07 3.66 3.73 3.75c3.69.09 7.39.19 11.08.3 1.29 0 1.91.66 1.87 1.87-.08 2.57-.16 5.13-.23 7.7a1.72 1.72 0 0 1-1.65 1.81q-6.66.87-13.3 1.79a2.66 2.66 0 0 0-2.58 2.84c0 1.56-.06 3.11-.1 4.67 0 1.84.89 2.78 2.77 2.83q7.42.12 14.83.39Zm64.65 26.36a1.71 1.71 0 0 1 .13.82 1.66 1.66 0 0 1-2 1.73q-6.48-.44-13-.82a1.72 1.72 0 0 1-1.46-.91q-10.23-17.53-20.9-35-1.35 10.37-2.67 20.75c-.29 2.38-1.61 3.51-4 3.41l-8.17-.33q-3.72-.15-3.59-3.81 1.2-32.94 2.39-65.87c.09-2.45 1.42-3.63 4-3.53q14.81.57 29.6 1.38a18.14 18.14 0 0 1 12.16 5.06 14.53 14.53 0 0 1 4.36 11.77l-.87 13.62a16.51 16.51 0 0 1-5.86 11.71L358.85 67q8.15 17.28 15.87 34.63Zm-24.37-55.84q.16-3.16-3.29-4.17l-4.06-1.2a4.48 4.48 0 0 0-1-.14c-1.17-.05-1.81.57-1.94 1.86q-.51 6-1 11.94v.13a1.61 1.61 0 0 0 1.74 1.9 2 2 0 0 0 1.48-.56l5.43-5.09c1.66-1.61 2.56-3.16 2.64-4.67Zm53.17-.64c-1.92-.16-2.93.49-3 1.93s.87 2.59 3 3.25c2.93.93 5.87 1.88 8.8 2.83q6.9 2.25 9.7 6.07 2 2.73 1.36 9.69l-1.35 14.3a13 13 0 0 1-6.45 10.47A20.22 20.22 0 0 1 403 96.23q-12.51-1-25-1.92c-2.17-.16-3.18-1.3-3-3.44l.84-12.3q.21-3.21 3.51-3 10.33.72 20.67 1.57 3.29.27 3.59-3.39.25-3-2.19-4.09-5.62-2.36-11.16-4.66c-8.79-3.69-12.92-9.93-12.32-18.83.2-2.84.39-5.67.58-8.51.33-4.82 2-8.44 5.07-10.85s7.14-3.42 12.23-3q14.83 1.14 29.66 2.53c2.26.21 3.28 1.38 3.08 3.52L427.21 44c-.21 2.13-1.42 3.09-3.65 2.88q-10.02-.88-20.04-1.73Zm61.11 41.66q3.28.39 2.89 3.59l-1.11 9.27c-.26 2.13-1.47 3.06-3.63 2.81q-14.73-1.76-29.46-3.25-3.61-.36-3.34-4 2.59-32.43 5.15-64.86a.82.82 0 0 0 0-.14q.36-3.53 4.21-3.13 16 1.61 31.95 3.5 3.38.41 3 3.6-1 7.91-1.91 15.8c-.26 2.13-2 3-5.13 2.63q-6.25-.73-12.51-1.43c-2.22-.25-3.45.7-3.69 2.83-.12 1.18-.25 2.35-.38 3.52q-.39 3.64 3.39 4.07 5.52.6 11 1.26c1.27.15 1.84.82 1.7 2-.3 2.55-.61 5.1-.91 7.66a1.69 1.69 0 0 1-1.79 1.65q-6.72.28-13.43.62a2.67 2.67 0 0 0-2.82 2.61l-.51 4.64c-.19 1.84.65 2.85 2.52 3.06q7.43.81 14.81 1.69Z" fill="#7f29db"/></g><path d="M.4 17.1A20.1 20.1 0 0 0 13 .58a.68.68 0 0 1 1.3-.2 21.2 21.2 0 0 0 17.57 12.13.64.64 0 0 1 .2 1.23 20.53 20.53 0 0 0-12.68 16.88.67.67 0 0 1-1.27.2A21.28 21.28 0 0 0 .63 18.33.64.64 0 0 1 .4 17.1Zm483.91 64.07a14 14 0 0 1 4.41 13.65.45.45 0 0 0 .77.38 14.13 14.13 0 0 1 13.62-4.43.44.44 0 0 0 .39-.76 13.8 13.8 0 0 1-4.56-13.45.45.45 0 0 0-.78-.38 13.86 13.86 0 0 1-13.48 4.22.44.44 0 0 0-.37.77Zm-152.72 41.64a15.19 15.19 0 0 1 11 10.77.47.47 0 0 0 .91 0 14.83 14.83 0 0 1 10.52-11 .47.47 0 0 0 0-.91 15 15 0 0 1-11.06-10.5.48.48 0 0 0-.92 0 14.46 14.46 0 0 1-10.45 10.68.47.47 0 0 0 0 .96Zm-209-19.22a16.25 16.25 0 0 1 12.55 10.65.51.51 0 0 0 1-.08 15.86 15.86 0 0 1 10.45-12.45.5.5 0 0 0-.08-1 16.1 16.1 0 0 1-12.63-10.37.51.51 0 0 0-1 .09 15.53 15.53 0 0 1-10.4 12.16.5.5 0 0 0 .08 1Zm137.35-69a18.13 18.13 0 0 1 13.56 12.33.57.57 0 0 0 1.1 0 17.61 17.61 0 0 1 12.34-13.17.55.55 0 0 0-.05-1.07 17.94 17.94 0 0 1-13.64-12 .58.58 0 0 0-1.11 0 17.19 17.19 0 0 1-12.27 12.84.55.55 0 0 0 .04 1.04Z" fill="#b17ce9"/></g></g></svg>