<svg xmlns="http://www.w3.org/2000/svg" viewBox="0 0 139.21 130.25"><path d="M139.18,60.15a8.7,8.7,0,0,1-1,3.43q-11.07,20.2-21.22,40.7a11.31,11.31,0,0,1-5.15,5.19l-.17.09-.17.08-.17.09a.8.8,0,0,1-.16.08l-.17.09-.17.09-.17.08-.16.09-.18.09-.16.08-.17.09-.17.08-.17.09-.17.09-.17.09-.16.08-.17.09-.17.08-.17.09-.17.09-.16.08-.17.09-.17.09-.16.08-.18.09-.16.09-.17.09-.17.08-.16.09-.17.08-.18.1-.16.08-.16.09-.18.09-.16.08-.17.09-.16.08-.17.09-.17.09-.17.09-.16.08-.17.09-.17.09-.17.09-.16.09-.17.08-.16.09-.18.09-.16.08-.17.09-.16.09-.18.09a.8.8,0,0,1-.16.08.91.91,0,0,1-.17.09l-.16.09-.17.09-.16.09-.17.09-.17.08-.16.09-.17.09-.17.09-.16.09-.17.08-.16.09-.18.09-.16.09-.16.09-.17.09-.17.08-.16.09-.17.09-.16.09-.17.09-.17.09-.16.08-.17.09-.17.09-.16.09-.16.09-.18.09-.16.09-.16.08a1.4,1.4,0,0,1-.17.09l-.17.09-.16.09-.16.09-.17.09-.17.09-.16.09-.17.09-.16.09-.17.09-.16.08-.17.09-.16.09-.17.09-.16.09-.17.09-.16.09-.17.09-.16.09-.17.09-.16.09-.17.09-.17.09-.16.09-.16.08-.17.1-.16.08-.17.1-.16.09-.16.08-.17.1-.17.09c-.05,0-.1.06-.16.08l-.16.1-.17.09L92,120a1.4,1.4,0,0,0-.17.09l-.16.08-.17.1a.8.8,0,0,1-.16.08l-.16.1-.17.09-.17.09-.15.08-.17.1-.17.09-.16.09L90,121l-.16.09-.17.09-.16.09-.17.09-.16.09-.16.09-.17.09-.16.09-.16.09-.17.09-.17.1-.15.08-.18.1-.15.09-.16.09-.17.09-.16.09-.16.09-.17.09-.16.1-.16.08-.17.1-.16.09-.16.09-.17.09-.16.09-.16.09-.17.09-.16.09-.16.1-.16.09-.17.09-.16.09-.16.09-.16.09-.17.1-.16.09-.16.09-.17.09-.15.09-.17.1s-.1.06-.16.08a1,1,0,0,1-.17.1l-.15.09-.17.09-.16.09-.16.1-.16.09-.16.09-.17.09-.16.09-.17.1-.15.09-.16.09-.17.09-.16.1-.16.09-.16.09-.16.09-.17.1-.16.09-.16.09-.16.09-.16.1-.16.09-.16.09-.17.09-.16.09-.16.1a21.68,21.68,0,0,1-10.68,2.76q-6,0-12.08.14c-9.54.18-17.39-5.27-20.63-14.45Q20,71.27,1.66,27.36a20,20,0,0,1-1.6-6.28C-.7,11.91,6.35,1.9,21.32,1.07Q34.87.35,48.43,0A25.25,25.25,0,0,1,66,5.92l.21.2.23.2.21.2.23.2.22.21.21.19.23.21.22.2.21.2a2.09,2.09,0,0,1,.22.2l.22.2.22.2.22.21a2.09,2.09,0,0,1,.22.2,2.09,2.09,0,0,1,.22.2c.07.06.14.14.22.2l.21.2.23.21.21.2a2.09,2.09,0,0,1,.22.2,2.09,2.09,0,0,1,.22.2l.22.2a2.09,2.09,0,0,0,.22.2l.22.21.21.2a2.09,2.09,0,0,1,.22.2l.22.21.21.2.23.2.21.2.22.21.21.2a2.09,2.09,0,0,1,.22.2c.08.07.14.14.22.2l.22.21.21.2c.08.06.15.14.22.2a2.09,2.09,0,0,0,.22.2l.21.21a2.09,2.09,0,0,1,.22.2,2.09,2.09,0,0,0,.22.2l.21.21c.08.06.14.13.22.2l.21.2.22.21.21.2.22.21a2.09,2.09,0,0,1,.22.2l.21.2c.08.07.14.14.22.2l.22.21.21.2.22.21.08.08a20.81,20.81,0,0,1,15.71-6.19q8.76.21,17.5.59c9.45.41,16.66,5.79,18.65,13.05l.05.17s0,.11,0,.16,0,.12.05.17a.75.75,0,0,0,0,.16,27096077484771.53,27096077484771.53,0,0,0,.1.34,1,1,0,0,0,0,.16,1.09,1.09,0,0,0,.05.17,1,1,0,0,0,0,.16,1.09,1.09,0,0,0,.05.17c0,.05,0,.11,0,.16a13548038742318.32,13548038742318.32,0,0,0,.1.34,1,1,0,0,1,0,.16,1.09,1.09,0,0,1,.05.17,1,1,0,0,1,0,.16,1.09,1.09,0,0,1,.05.17c0,.05,0,.11.05.16l0,.17a.75.75,0,0,0,.05.16,1.09,1.09,0,0,0,0,.17,1.54,1.54,0,0,0,.05.17,1.42,1.42,0,0,0,.05.16,1.09,1.09,0,0,0,0,.17c0,.05,0,.11,0,.16a1.09,1.09,0,0,1,.05.17,1,1,0,0,1,.05.16,1.09,1.09,0,0,1,0,.17.84.84,0,0,1,.05.17c0,.05,0,.11,0,.16a1.09,1.09,0,0,0,.05.17,1,1,0,0,0,.05.16,1.09,1.09,0,0,0,0,.17l0,.16a1.09,1.09,0,0,1,0,.17,1,1,0,0,1,.05.16,1231639885676.28,1231639885676.28,0,0,0,.1.34c0,.05,0,.11.05.16a1.09,1.09,0,0,0,0,.17,1.54,1.54,0,0,0,.05.17,1.42,1.42,0,0,0,0,.16l0,.16a1231639885676.31,1231639885676.31,0,0,0,.1.34c0,.05,0,.11,0,.16l.05.17a1,1,0,0,0,.05.16,1.09,1.09,0,0,0,0,.17c0,.05,0,.11,0,.16a1.09,1.09,0,0,1,.05.17,1.42,1.42,0,0,1,.05.16c0,.06,0,.12,0,.17l.05.17a1,1,0,0,0,0,.16,1.09,1.09,0,0,0,.05.17s0,.11,0,.16a1.09,1.09,0,0,1,.05.17,1,1,0,0,1,.05.16l0,.17a1.09,1.09,0,0,0,.05.17c0,.05,0,.11,0,.16a1.09,1.09,0,0,1,.05.17,1,1,0,0,1,0,.16,1.09,1.09,0,0,1,.05.17c0,.06,0,.11,0,.16a.84.84,0,0,0,.05.17c0,.06,0,.11,0,.16a1.54,1.54,0,0,1,.05.17,1.09,1.09,0,0,1,.05.17s0,.11,0,.16a1.09,1.09,0,0,0,.05.17c0,.06,0,.11,0,.17a.75.75,0,0,1,.05.16,1.09,1.09,0,0,1,0,.17s0,.11.05.17a1.42,1.42,0,0,0,0,.16l0,.16a1.09,1.09,0,0,1,0,.17,1.42,1.42,0,0,1,.05.16c0,.06,0,.12,0,.17a1.09,1.09,0,0,0,.05.17s0,.11,0,.16a1.09,1.09,0,0,1,.05.17.84.84,0,0,1,.05.17s0,.1,0,.16a1.09,1.09,0,0,0,.05.17s0,.11,0,.16a1.09,1.09,0,0,1,.05.17s0,.11,0,.16a1.09,1.09,0,0,0,.05.17c0,.06,0,.11,0,.17a.75.75,0,0,1,.05.16l0,.17a1,1,0,0,0,.05.16c0,.06,0,.11,0,.17a1,1,0,0,1,.05.16l0,.17a1.09,1.09,0,0,0,.05.17s0,.11,0,.16a1.09,1.09,0,0,1,.05.17s0,.11,0,.16a1.09,1.09,0,0,0,.05.17s0,.11,0,.16a1.09,1.09,0,0,1,.05.17l.05.17a1.42,1.42,0,0,0,0,.16c0,.06,0,.11,0,.17a1,1,0,0,1,.05.16l.05.17c0,.06,0,.11,0,.17a1,1,0,0,1,.05.16l0,.17a1,1,0,0,0,.05.16c0,.06,0,.11,0,.17a1.42,1.42,0,0,1,.05.16l0,.17c0,.06,0,.11,0,.17a1,1,0,0,1,.05.16l.05.17a1,1,0,0,0,0,.16c0,.06,0,.12,0,.17s0,.11,0,.16a.84.84,0,0,0,.05.17c0,.06,0,.11,0,.17a1,1,0,0,1,.05.16l0,.17,0,.16a1.09,1.09,0,0,1,0,.17l.05.17c0,.05,0,.11,0,.16a1.09,1.09,0,0,1,.05.17s0,.11,0,.17,0,.1,0,.16a1.09,1.09,0,0,1,.05.17s0,.11.05.16,0,.11,0,.17a1,1,0,0,1,.05.16c0,.06,0,.12,0,.17s0,.11,0,.16a1.54,1.54,0,0,1,.05.17l.05.17c0,.05,0,.11,0,.16a1.09,1.09,0,0,1,.05.17l0,.17c0,.05,0,.11,0,.16a1.42,1.42,0,0,1,.05.16.84.84,0,0,0,.05.17c0,.06,0,.11,0,.17a1.42,1.42,0,0,1,0,.16,1.09,1.09,0,0,0,.05.17c0,.06,0,.11,0,.17s0,.11.05.16,0,.11,0,.17a.84.84,0,0,1,.05.17s0,.11,0,.16,0,.11,0,.16a1.54,1.54,0,0,1,0,.17,1.09,1.09,0,0,0,.05.17c0,.05,0,.11,0,.16s0,.12.05.17,0,.11,0,.16a1.54,1.54,0,0,1,.05.17l0,.17,0,.16,0,.17s0,.11,0,.17a.84.84,0,0,1,.05.17c0,.05,0,.1.05.16s0,.11,0,.16l.05.17c0,.06,0,.11,0,.17a1,1,0,0,1,0,.16,1.09,1.09,0,0,0,.05.17s0,.11,0,.16l.05.17c0,.06,0,.11,0,.16l.05.17a1.09,1.09,0,0,0,0,.17s0,.11,0,.17,0,.1,0,.16,0,.11,0,.17,0,.11,0,.16,0,.11,0,.17,0,.11.05.16a1.09,1.09,0,0,0,.05.17c0,.06,0,.11,0,.16a1.09,1.09,0,0,0,0,.17c0,.06,0,.11,0,.17s0,.11,0,.16,0,.11,0,.17,0,.11,0,.16,0,.12,0,.17l0,.17s0,.11,0,.16a1.09,1.09,0,0,1,.05.17s0,.11,0,.16a1.09,1.09,0,0,1,.05.17,1.09,1.09,0,0,0,0,.17l0,.16A8.18,8.18,0,0,1,139.18,60.15Z" fill="#2b0020"/><path d="M17.7,22a6.79,6.79,0,0,1-.55-2.12c-.14-2.36,1.52-3.65,5-3.84q13.34-.72,26.67-1c3.33-.09,5.53,1.26,6.6,4q8.26,20.85,15.8,41.84,9.21-17.13,19.13-34a2.74,2.74,0,0,1,2.6-1.29q8.61.21,17.21.59c2,.08,3,.87,2.88,2.33a3.16,3.16,0,0,1-.34,1.28Q91.6,69.92,74,111a6.1,6.1,0,0,1-6,4.11q-6.15,0-12.3.14A5.51,5.51,0,0,1,50,111Q35.32,66.24,17.7,22Z" fill="#b51f8c"/></svg>